<?xml version="1.0" encoding="UTF-8"?>
<svg id="Layer_1" xmlns="http://www.w3.org/2000/svg" version="1.1" viewBox="0 0 1870.67 352">
  <!-- Generator: Adobe Illustrator 29.8.2, SVG Export Plug-In . SVG Version: 2.1.1 Build 3)  -->
  <defs>
    <style>
      .st0, .st1 {
        fill: #a8ffa8;
      }

      .st2, .st1 {
        isolation: isolate;
      }

      .st1 {
        font-family: Avantt-Regular, Avantt;
        font-size: 351.75px;
      }
    </style>
  </defs>
  <g class="st2">
    <text class="st1" transform="translate(768.36 271.94)"><tspan x="0" y="0">vesper</tspan></text>
  </g>
  <path class="st0" d="M90.48,28.58h-39.52v245.29h39.52V28.58Z"/>
  <path class="st0" d="M243.92,110.04c-14.12-8.07-29.51-12.1-46.12-12.1s-32.28,4.03-46.29,12.1c-14.02,8.06-25.11,18.98-33.3,32.77s-12.29,28.96-12.29,45.56,4.1,31.77,12.29,45.56,19.28,24.64,33.3,32.58c13.99,7.94,29.43,11.92,46.29,11.92s31.98-3.98,46.12-11.92c14.12-7.94,25.28-18.81,33.48-32.58,8.19-13.79,12.29-28.96,12.29-45.56s-4.1-31.77-12.29-45.56-19.36-24.71-33.48-32.77h0ZM243.74,215.69c-4.75,8.19-11.17,14.65-19.24,19.45-8.07,4.79-16.96,7.18-26.71,7.18s-18.99-2.39-27.06-7.18c-8.07-4.8-14.41-11.26-19.04-19.45-4.62-8.16-6.95-17.29-6.95-27.34s2.32-19.2,6.95-27.51c4.62-8.29,10.97-14.83,19.04-19.62s17.09-7.18,27.06-7.18,18.64,2.41,26.71,7.18c8.07,4.79,14.47,11.34,19.24,19.62,4.75,8.29,7.12,17.46,7.12,27.51s-2.37,19.15-7.12,27.34Z"/>
  <path class="st0" d="M442.24,110.04c-14.11-8.07-29.5-12.1-46.12-12.1s-32.28,4.03-46.29,12.1c-14.02,8.06-25.11,18.98-33.3,32.77-8.19,13.79-12.29,28.96-12.29,45.56s4.1,31.77,12.29,45.56,19.29,24.64,33.3,32.58c13.99,7.94,29.43,11.92,46.29,11.92s31.98-3.98,46.12-11.92c14.12-7.94,25.29-18.81,33.48-32.58,8.19-13.79,12.29-28.96,12.29-45.56s-4.1-31.77-12.29-45.56-19.36-24.71-33.48-32.77ZM442.06,215.69c-4.75,8.19-11.17,14.65-19.24,19.45-8.07,4.79-16.96,7.18-26.71,7.18s-18.99-2.39-27.06-7.18c-8.07-4.8-14.41-11.26-19.04-19.45-4.62-8.16-6.94-17.29-6.94-27.34s2.32-19.2,6.94-27.51c4.62-8.29,10.97-14.83,19.04-19.62s17.09-7.18,27.06-7.18,18.64,2.41,26.71,7.18c8.07,4.79,14.46,11.34,19.24,19.62,4.75,8.29,7.12,17.46,7.12,27.51s-2.37,19.15-7.12,27.34Z"/>
  <path class="st0" d="M644.13,109.52c-13.41-7.72-28.31-11.55-44.69-11.55-10.92,0-21.18,1.92-30.8,5.78s-18.21,9.29-25.81,16.3v-17.53h-39.52v237.23h39.52v-83.4c7.6,7.01,16.19,12.44,25.81,16.3s19.89,5.78,30.8,5.78c16.39,0,31.28-3.91,44.69-11.73,13.42-7.82,23.91-18.64,31.5-32.41s11.39-29.31,11.39-46.6-3.8-32.7-11.39-46.25c-7.6-13.55-18.11-24.17-31.5-31.89v-.02h0ZM640.93,215.17c-4.62,8.06-10.92,14.43-18.86,19.11-7.95,4.67-16.79,7.01-26.53,7.01-15.19,0-27.78-5.02-37.75-15.07-9.97-10.03-14.96-22.64-14.96-37.84s5-28.38,14.96-38.19c9.97-9.81,22.56-14.73,37.75-14.73,9.72,0,18.56,2.28,26.53,6.83,7.95,4.55,14.24,10.87,18.86,18.93s6.95,17.11,6.95,27.14-2.32,18.73-6.95,26.8h0Z"/>
</svg>